<svg version="1.1" id="Layer_1" xmlns="http://www.w3.org/2000/svg" xmlns:xlink="http://www.w3.org/1999/xlink" x="0px" y="0px"
	 width="100%" viewBox="0 0 2560 2560" enable-background="new 0 0 2560 2560" xml:space="preserve">
<path fill="#FFFFFF" opacity="1.000000" stroke="none" 
	d="
M1420.000000,2562.000000 
	C946.666687,2562.000000 474.333344,2562.000000 2.000000,2562.000000 
	C2.000000,1708.666626 2.000000,855.333313 2.000000,2.000000 
	C855.333313,2.000000 1708.666626,2.000000 2562.000000,2.000000 
	C2562.000000,855.333313 2562.000000,1708.666626 2562.000000,2562.000000 
	C2181.666748,2562.000000 1801.333374,2562.000000 1420.000000,2562.000000 
M1814.217529,1843.465210 
	C1815.149536,1843.114380 1816.065918,1842.712769 1817.015747,1842.419678 
	C1872.921631,1825.169067 1913.468872,1772.275513 1913.813599,1713.863037 
	C1914.374146,1618.874268 1914.187012,1523.879395 1913.889404,1428.888428 
	C1913.779663,1393.870239 1901.480103,1363.151978 1878.053711,1336.998901 
	C1876.094971,1334.812134 1874.144409,1332.618042 1872.105957,1330.333252 
	C1872.950562,1328.843628 1873.515259,1327.652954 1874.250610,1326.579224 
	C1897.018921,1293.333252 1906.859741,1256.542358 1906.496948,1216.308716 
	C1905.905029,1150.652832 1906.337524,1084.987671 1906.337769,1019.326477 
	C1906.337769,1015.702209 1906.337646,1012.077881 1906.337646,1007.947937 
	C1909.338013,1008.206787 1911.637573,1008.180908 1913.841187,1008.627441 
	C2010.394653,1028.192627 2106.956787,1047.716187 2203.472656,1067.463867 
	C2225.606934,1071.992798 2247.800537,1073.458618 2269.998779,1069.322021 
	C2367.217041,1051.204956 2425.364746,959.942078 2405.749023,871.544067 
	C2390.717285,803.804871 2348.484375,760.044312 2281.186035,742.242798 
	C2253.883789,735.020996 2225.811768,730.709595 2198.087402,725.085876 
	C2114.260498,708.081848 2030.431641,691.088013 1946.605957,674.078491 
	C1933.308105,671.380127 1920.022705,668.620911 1905.965820,665.732483 
	C1905.965820,647.747559 1906.835083,630.392273 1905.795410,613.152100 
	C1903.156494,569.398071 1886.388794,531.950317 1853.541748,502.294556 
	C1814.398315,466.953949 1758.889404,459.829437 1712.176514,484.043579 
	C1709.264404,485.553131 1706.323120,487.006378 1702.905273,488.733398 
	C1701.727295,485.036102 1700.743286,481.929260 1699.747559,478.826202 
	C1692.101685,454.999817 1680.074585,433.785065 1662.643311,415.668488 
	C1620.404541,371.769043 1558.582886,363.528717 1506.513428,395.037903 
	C1501.788574,397.897095 1497.245117,401.056183 1492.583130,404.098450 
	C1451.027222,320.372131 1336.782104,295.319519 1265.686523,373.998352 
	C1256.553101,366.263885 1248.061157,357.626862 1238.220459,350.989532 
	C1195.567017,322.220703 1150.070190,317.457001 1103.831055,340.403320 
	C1054.661255,364.804016 1028.942627,406.683319 1021.746460,460.441040 
	C1020.606628,468.956329 1020.408569,477.597656 1019.711731,487.039948 
	C964.591370,475.912262 909.947571,464.880798 855.687134,453.926697 
	C854.203308,449.286285 853.079712,445.815399 851.982849,442.336090 
	C828.120605,366.643646 785.215515,303.958832 721.607422,256.509583 
	C638.602661,194.591187 545.046875,171.169037 442.580261,185.831924 
	C369.765442,196.251678 306.101074,227.112366 251.109024,275.992676 
	C241.421387,284.603638 237.296310,294.903046 240.742203,307.262360 
	C244.119461,319.375427 253.077637,325.574280 265.425049,327.554962 
	C307.501373,334.304565 349.552185,341.214417 391.599701,348.141876 
	C419.191437,352.687714 446.873779,356.790161 474.310516,362.142120 
	C506.085876,368.340454 525.945862,397.919342 520.725708,429.751556 
	C515.284851,462.928802 509.715485,496.084900 504.227448,529.254395 
	C497.435364,570.305786 490.856415,611.393555 483.831818,652.404968 
	C478.306274,684.664673 447.706085,706.445740 415.668671,701.151123 
	C350.305054,690.348816 284.975708,679.339661 219.614029,668.525696 
	C208.131058,666.625793 196.593399,664.290588 185.020462,663.885559 
	C168.910660,663.321716 156.639481,676.848511 157.883865,692.934753 
	C158.281525,698.075256 160.178528,703.327148 162.382919,708.065979 
	C191.150146,769.907166 233.241547,820.729736 290.078766,858.546326 
	C379.551361,918.076904 477.464539,936.311707 582.082397,912.712402 
	C663.312805,894.388672 730.427368,851.571411 783.880066,787.579529 
	C785.556885,785.572083 787.293884,783.614807 789.315552,781.271667 
	C832.475586,790.044922 875.400696,798.770447 918.069763,807.443848 
	C918.069763,808.876709 918.181030,809.248840 918.052429,809.496338 
	C916.831665,811.846069 915.578247,814.178955 914.319092,816.508545 
	C902.874390,837.682800 896.409912,860.291565 896.305603,884.361389 
	C896.057373,941.688538 895.446350,999.031616 896.476074,1056.341431 
	C897.369385,1106.059692 917.958679,1147.299561 956.550293,1178.727051 
	C1010.292725,1222.493042 1064.711670,1265.427368 1118.559326,1309.065186 
	C1142.167358,1328.197021 1166.780273,1345.772827 1192.859497,1361.332642 
	C1194.518188,1362.322266 1195.967896,1363.662354 1197.620728,1364.919922 
	C1185.500122,1387.855957 1181.368408,1412.022095 1181.481079,1437.512695 
	C1181.875732,1526.836792 1181.613525,1616.163818 1181.673462,1705.489746 
	C1181.678589,1713.145508 1181.546753,1720.896729 1182.617798,1728.441895 
	C1192.591064,1798.698730 1250.450562,1848.973389 1321.189209,1848.990234 
	C1472.176758,1849.026367 1623.164429,1849.125366 1774.151245,1848.779785 
	C1786.986084,1848.750488 1799.813721,1845.587769 1814.217529,1843.465210 
M560.639160,2201.724609 
	C566.346680,2185.396973 572.102783,2169.086182 577.748108,2152.737061 
	C583.392944,2136.389404 588.682617,2119.915039 594.579102,2103.659668 
	C600.359253,2087.725098 604.961975,2071.313721 612.846069,2055.966553 
	C613.991272,2058.936035 614.266846,2061.715332 613.948303,2064.424561 
	C611.032288,2089.225586 607.698853,2113.981201 605.102234,2138.814697 
	C601.743347,2170.936279 597.062988,2203.072266 596.302124,2235.281250 
	C594.704956,2302.896240 595.289307,2370.562744 595.025879,2438.208496 
	C595.019775,2439.779297 595.582092,2441.352295 595.861206,2442.828857 
	C643.166382,2442.828857 690.005676,2442.828857 737.173096,2442.828857 
	C737.173096,2244.813965 737.173096,2047.384521 737.173096,1849.561157 
	C680.859924,1849.561157 625.045898,1849.561157 569.689514,1849.561157 
	C569.027832,1850.406982 568.731750,1850.638550 568.630127,1850.936401 
	C529.845703,1964.528442 484.901184,2076.043945 453.589783,2192.155762 
	C453.417633,2192.794189 453.178864,2193.431152 452.863617,2194.010010 
	C452.554688,2194.577148 452.136475,2195.093994 451.709198,2195.583008 
	C451.498749,2195.823975 451.179230,2196.034668 450.872955,2196.108154 
	C450.570496,2196.180420 450.222382,2196.062012 448.825104,2195.914795 
	C447.961823,2193.397217 446.840240,2190.432373 445.923340,2187.405273 
	C435.704102,2153.666016 426.812164,2119.457520 415.049622,2086.266357 
	C390.831116,2017.926392 365.086456,1950.127319 339.961639,1882.108765 
	C335.939758,1871.220581 331.875031,1860.348389 327.800171,1849.388184 
	C271.725098,1849.388184 216.190353,1849.388184 160.384140,1849.388184 
	C160.384140,2047.474731 160.384140,2245.150391 160.384140,2442.862549 
	C207.282669,2442.862549 253.453903,2442.862549 300.340973,2442.862549 
	C300.340973,2439.369873 300.341034,2436.416992 300.340942,2433.463867 
	C300.339417,2378.810303 300.390106,2324.156494 300.295532,2269.502930 
	C300.274780,2257.510498 300.523010,2245.438477 299.304535,2233.540771 
	C293.402069,2175.905029 287.031952,2118.317139 280.896606,2060.705078 
	C280.727448,2059.116943 281.338745,2057.445801 281.586121,2055.813232 
	C302.827209,2112.062988 321.566162,2168.709961 341.641083,2224.879395 
	C361.885132,2281.522461 383.455353,2337.691406 404.472656,2394.143555 
	C432.914215,2394.143555 460.800781,2394.143555 489.034515,2394.143555 
	C512.806274,2330.299805 536.468262,2266.750977 560.639160,2201.724609 
M1542.349365,1985.989502 
	C1519.901367,1987.873535 1497.453491,1989.757568 1475.049805,1991.637817 
	C1475.049805,2031.088135 1475.049805,2069.315430 1475.049805,2108.559814 
	C1494.975098,2108.559814 1514.484497,2108.559814 1534.980957,2108.559814 
	C1534.980957,2112.829102 1534.980957,2116.083008 1534.980957,2119.336914 
	C1534.981445,2166.998535 1534.995117,2214.659912 1534.977417,2262.321533 
	C1534.965454,2294.488281 1538.236450,2326.102539 1549.549561,2356.554443 
	C1568.711060,2408.132080 1603.832275,2440.846924 1659.034912,2450.270020 
	C1697.624756,2456.857178 1736.001709,2455.412598 1774.158081,2447.209229 
	C1786.404175,2444.576172 1798.474976,2441.126953 1811.306519,2437.878906 
	C1803.231445,2399.464600 1795.407471,2362.244629 1787.532227,2324.780762 
	C1781.161377,2326.361572 1776.013672,2327.717285 1770.828369,2328.910156 
	C1758.710693,2331.697754 1746.518433,2333.116943 1734.229126,2330.053223 
	C1714.656006,2325.173340 1700.334106,2314.302246 1695.945190,2293.781494 
	C1693.735474,2283.449951 1692.420654,2272.730225 1692.339111,2262.173584 
	C1691.966187,2213.848389 1692.166626,2165.518555 1692.189209,2117.190430 
	C1692.190430,2114.627686 1692.449097,2112.064697 1692.638672,2108.564453 
	C1727.371704,2108.564453 1761.502808,2108.564453 1795.589600,2108.564453 
	C1795.589600,2067.168457 1795.589600,2026.760376 1795.589600,1985.996338 
	C1783.539673,1985.996338 1772.235474,1985.997070 1760.931274,1985.996216 
	C1749.265869,1985.995239 1737.600342,1986.015137 1725.934937,1985.984741 
	C1714.770874,1985.955811 1703.595093,1986.121582 1691.729492,1985.845947 
	C1691.729492,1945.541992 1691.729492,1906.682983 1691.729492,1868.084961 
	C1648.107178,1868.084961 1605.269409,1868.084961 1562.331665,1868.084961 
	C1559.399170,1887.502808 1556.664551,1906.275513 1553.707031,1925.012817 
	C1550.541992,1945.066895 1547.166626,1965.087646 1542.349365,1985.989502 
M1366.402954,2435.480225 
	C1384.783691,2427.167725 1401.530273,2416.426758 1415.522705,2401.769287 
	C1455.651489,2359.733643 1465.312378,2310.382568 1448.621826,2255.784424 
	C1441.285400,2231.785645 1424.143921,2214.115234 1404.321655,2199.260498 
	C1387.963135,2187.001465 1369.889160,2177.713867 1350.995483,2170.141357 
	C1328.763916,2161.230713 1306.230591,2153.074463 1283.977051,2144.216797 
	C1277.238403,2141.534668 1270.533203,2138.263184 1264.634766,2134.097656 
	C1256.554565,2128.391113 1253.984131,2119.779541 1256.065918,2110.165039 
	C1257.923096,2101.587158 1263.725342,2096.488037 1271.924194,2093.796143 
	C1282.562500,2090.303223 1293.396973,2089.628418 1304.478027,2090.824951 
	C1324.750244,2093.014160 1343.066650,2100.765625 1360.555298,2110.639160 
	C1370.081177,2116.017090 1379.151611,2122.202393 1389.041138,2128.408691 
	C1412.121704,2097.418945 1435.080322,2066.592773 1458.265259,2035.463013 
	C1433.745361,2017.673462 1409.031128,2002.482056 1381.961914,1991.909180 
	C1328.308960,1970.953247 1273.378418,1970.175293 1218.206177,1985.069336 
	C1190.063599,1992.666626 1165.377319,2007.164795 1145.138672,2028.327148 
	C1122.068726,2052.450195 1111.065552,2081.704590 1109.102905,2114.916016 
	C1106.742432,2154.859619 1120.312744,2187.977051 1149.641602,2214.890137 
	C1167.774292,2231.529053 1188.878052,2243.650635 1211.134277,2253.520752 
	C1233.930176,2263.630371 1257.410767,2272.186523 1280.460449,2281.739502 
	C1286.865479,2284.393799 1293.168701,2287.641113 1298.872925,2291.557373 
	C1307.546265,2297.511719 1311.361816,2306.172363 1309.447632,2316.744141 
	C1307.502319,2327.488770 1300.328491,2333.307617 1290.195923,2336.009766 
	C1275.086060,2340.039307 1259.763428,2339.711182 1244.584961,2337.135742 
	C1215.437256,2332.189453 1189.957764,2318.601074 1165.741089,2302.313965 
	C1161.454224,2299.430908 1157.180542,2296.528564 1152.630249,2293.451904 
	C1129.243530,2326.112793 1106.425049,2357.979980 1083.436646,2390.084717 
	C1085.370239,2391.653320 1086.591553,2392.737061 1087.904419,2393.695557 
	C1131.781250,2425.730713 1180.363037,2446.259277 1234.523315,2452.324707 
	C1279.212280,2457.329102 1322.919922,2452.852295 1366.402954,2435.480225 
M1880.592529,2322.999756 
	C1880.592529,2362.873779 1880.592529,2402.747559 1880.592529,2442.855469 
	C1933.603394,2442.855469 1985.420166,2442.855469 2038.008423,2442.855469 
	C2038.008423,2438.708252 2038.008423,2435.100830 2038.008423,2431.493408 
	C2038.008423,2356.837646 2038.337646,2282.179199 2037.725708,2207.528320 
	C2037.606079,2192.914551 2041.057129,2180.231445 2047.705322,2167.622803 
	C2068.337891,2128.491211 2107.538574,2107.652832 2151.245605,2113.385010 
	C2162.012695,2114.796875 2172.668945,2117.053223 2184.287598,2119.080566 
	C2192.804443,2073.948242 2201.229248,2029.302612 2209.744873,1984.175415 
	C2205.395508,1982.609985 2201.779785,1980.609009 2197.955322,1980.060669 
	C2185.471680,1978.270142 2172.947510,1976.412598 2160.374512,1975.660034 
	C2126.052734,1973.605591 2096.511719,1986.141602 2069.997070,2006.868042 
	C2052.427002,2020.602295 2039.281616,2038.150635 2027.729492,2057.031738 
	C2026.010742,2059.840820 2025.420166,2064.245850 2019.787598,2064.213623 
	C2016.091919,2038.238770 2012.403564,2012.315918 2008.746338,1986.611572 
	C1965.644409,1986.611572 1923.490112,1986.611572 1880.592651,1986.611572 
	C1880.592651,2098.489746 1880.592651,2209.744629 1880.592529,2322.999756 
M856.326843,2428.754883 
	C856.326843,2433.324463 856.326843,2437.894043 856.326843,2442.920654 
	C909.167297,2442.920654 960.970154,2442.920654 1013.157532,2442.920654 
	C1013.157532,2290.484375 1013.157532,2138.489014 1013.157532,1986.609497 
	C960.667053,1986.609497 908.862122,1986.609497 856.326843,1986.609497 
	C856.326843,2133.757812 856.326843,2280.288574 856.326843,2428.754883 
M2266.202393,2443.369873 
	C2317.367920,2443.369873 2368.533691,2443.369873 2419.680176,2443.369873 
	C2419.680176,2290.356689 2419.680176,2138.595947 2419.680176,1986.462891 
	C2367.413818,1986.462891 2315.639160,1986.462891 2262.984863,1986.462891 
	C2262.984863,1989.859863 2262.984619,1992.794067 2262.984619,1995.728271 
	C2262.988281,2141.618164 2262.982666,2287.507812 2263.056152,2433.397705 
	C2263.057617,2436.596924 2263.958984,2439.795410 2266.202393,2443.369873 
M849.785339,1861.119873 
	C853.094666,1890.195435 868.718384,1910.216309 895.206482,1921.764893 
	C913.362366,1929.680664 932.463074,1930.710938 951.958801,1928.100952 
	C987.591003,1923.330566 1020.967651,1897.769653 1020.976624,1851.204956 
	C1020.983826,1813.653564 999.917664,1785.737061 963.535522,1775.812378 
	C945.837036,1770.984375 927.980896,1770.788940 910.233032,1774.764282 
	C895.437744,1778.078247 882.109253,1784.653687 871.118042,1795.521240 
	C853.192322,1813.245605 847.627625,1835.023193 849.785339,1861.119873 
M2255.754395,1852.889648 
	C2256.152344,1892.439331 2281.867676,1919.189087 2317.643799,1926.872559 
	C2330.391357,1929.610107 2343.291992,1929.968140 2356.390625,1928.395874 
	C2397.773926,1923.429443 2424.723145,1896.432129 2427.201904,1855.017578 
	C2429.267578,1820.502563 2412.812988,1793.039062 2381.940918,1779.914917 
	C2364.975586,1772.702759 2347.243408,1770.847046 2329.077148,1772.749634 
	C2310.416016,1774.704102 2293.292480,1780.843140 2279.304199,1793.692871 
	C2262.617676,1809.021240 2255.528320,1828.583252 2255.754395,1852.889648 
z"/>
<path fill="#010101" opacity="1.000000" stroke="none" 
	d="
M1813.431152,1843.672852 
	C1799.813721,1845.587769 1786.986084,1848.750488 1774.151245,1848.779785 
	C1623.164429,1849.125366 1472.176758,1849.026367 1321.189209,1848.990234 
	C1250.450562,1848.973389 1192.591064,1798.698730 1182.617798,1728.441895 
	C1181.546753,1720.896729 1181.678589,1713.145508 1181.673462,1705.489746 
	C1181.613525,1616.163818 1181.875732,1526.836792 1181.481079,1437.512695 
	C1181.368408,1412.022095 1185.500122,1387.855957 1197.620728,1364.919922 
	C1195.967896,1363.662354 1194.518188,1362.322266 1192.859497,1361.332642 
	C1166.780273,1345.772827 1142.167358,1328.197021 1118.559326,1309.065186 
	C1064.711670,1265.427368 1010.292725,1222.493042 956.550293,1178.727051 
	C917.958679,1147.299561 897.369385,1106.059692 896.476074,1056.341431 
	C895.446350,999.031616 896.057373,941.688538 896.305603,884.361389 
	C896.409912,860.291565 902.874390,837.682800 914.319092,816.508545 
	C915.578247,814.178955 916.831665,811.846069 918.052429,809.496338 
	C918.181030,809.248840 918.069763,808.876709 918.069763,807.443848 
	C875.400696,798.770447 832.475586,790.044922 789.315552,781.271667 
	C787.293884,783.614807 785.556885,785.572083 783.880066,787.579529 
	C730.427368,851.571411 663.312805,894.388672 582.082397,912.712402 
	C477.464539,936.311707 379.551361,918.076904 290.078766,858.546326 
	C233.241547,820.729736 191.150146,769.907166 162.382919,708.065979 
	C160.178528,703.327148 158.281525,698.075256 157.883865,692.934753 
	C156.639481,676.848511 168.910660,663.321716 185.020462,663.885559 
	C196.593399,664.290588 208.131058,666.625793 219.614029,668.525696 
	C284.975708,679.339661 350.305054,690.348816 415.668671,701.151123 
	C447.706085,706.445740 478.306274,684.664673 483.831818,652.404968 
	C490.856415,611.393555 497.435364,570.305786 504.227448,529.254395 
	C509.715485,496.084900 515.284851,462.928802 520.725708,429.751556 
	C525.945862,397.919342 506.085876,368.340454 474.310516,362.142120 
	C446.873779,356.790161 419.191437,352.687714 391.599701,348.141876 
	C349.552185,341.214417 307.501373,334.304565 265.425049,327.554962 
	C253.077637,325.574280 244.119461,319.375427 240.742203,307.262360 
	C237.296310,294.903046 241.421387,284.603638 251.109024,275.992676 
	C306.101074,227.112366 369.765442,196.251678 442.580261,185.831924 
	C545.046875,171.169037 638.602661,194.591187 721.607422,256.509583 
	C785.215515,303.958832 828.120605,366.643646 851.982849,442.336090 
	C853.079712,445.815399 854.203308,449.286285 855.687134,453.926697 
	C909.947571,464.880798 964.591370,475.912262 1019.711731,487.039948 
	C1020.408569,477.597656 1020.606628,468.956329 1021.746460,460.441040 
	C1028.942627,406.683319 1054.661255,364.804016 1103.831055,340.403320 
	C1150.070190,317.457001 1195.567017,322.220703 1238.220459,350.989532 
	C1248.061157,357.626862 1256.553101,366.263885 1265.686523,373.998352 
	C1336.782104,295.319519 1451.027222,320.372131 1492.583130,404.098450 
	C1497.245117,401.056183 1501.788574,397.897095 1506.513428,395.037903 
	C1558.582886,363.528717 1620.404541,371.769043 1662.643311,415.668488 
	C1680.074585,433.785065 1692.101685,454.999817 1699.747559,478.826202 
	C1700.743286,481.929260 1701.727295,485.036102 1702.905273,488.733398 
	C1706.323120,487.006378 1709.264404,485.553131 1712.176514,484.043579 
	C1758.889404,459.829437 1814.398315,466.953949 1853.541748,502.294556 
	C1886.388794,531.950317 1903.156494,569.398071 1905.795410,613.152100 
	C1906.835083,630.392273 1905.965820,647.747559 1905.965820,665.732483 
	C1920.022705,668.620911 1933.308105,671.380127 1946.605957,674.078491 
	C2030.431641,691.088013 2114.260498,708.081848 2198.087402,725.085876 
	C2225.811768,730.709595 2253.883789,735.020996 2281.186035,742.242798 
	C2348.484375,760.044312 2390.717285,803.804871 2405.749023,871.544067 
	C2425.364746,959.942078 2367.217041,1051.204956 2269.998779,1069.322021 
	C2247.800537,1073.458618 2225.606934,1071.992798 2203.472656,1067.463867 
	C2106.956787,1047.716187 2010.394653,1028.192627 1913.841187,1008.627441 
	C1911.637573,1008.180908 1909.338013,1008.206787 1906.337646,1007.947937 
	C1906.337646,1012.077881 1906.337769,1015.702209 1906.337769,1019.326477 
	C1906.337524,1084.987671 1905.905029,1150.652832 1906.496948,1216.308716 
	C1906.859741,1256.542358 1897.018921,1293.333252 1874.250610,1326.579224 
	C1873.515259,1327.652954 1872.950562,1328.843628 1872.105957,1330.333252 
	C1874.144409,1332.618042 1876.094971,1334.812134 1878.053711,1336.998901 
	C1901.480103,1363.151978 1913.779663,1393.870239 1913.889404,1428.888428 
	C1914.187012,1523.879395 1914.374146,1618.874268 1913.813599,1713.863037 
	C1913.468872,1772.275513 1872.921631,1825.169067 1817.015747,1842.419678 
	C1816.065918,1842.712769 1815.149536,1843.114380 1813.431152,1843.672852 
M1481.885620,1181.224487 
	C1463.988525,1145.009766 1440.548218,1112.881836 1410.902222,1085.388428 
	C1366.534668,1044.241943 1314.118774,1017.308594 1256.621338,1000.207153 
	C1229.565063,992.159790 1201.707031,986.822571 1174.254517,980.085938 
	C1158.915039,976.321716 1149.065552,966.675232 1146.071289,951.080750 
	C1143.035034,935.266052 1148.076172,922.134155 1161.239624,912.543091 
	C1164.720337,910.006958 1168.591064,907.985107 1172.366333,905.877075 
	C1201.143433,889.808472 1229.929199,873.755005 1258.737793,857.742798 
	C1274.669312,848.887939 1287.134155,836.828918 1293.852539,819.576538 
	C1306.633911,786.753540 1295.613281,754.985474 1272.620850,730.573669 
	C1267.588257,725.230408 1260.889160,722.681763 1253.534302,723.835632 
	C1247.681274,724.753845 1241.749268,726.114624 1236.285889,728.342407 
	C1228.605347,731.474243 1221.510132,736.033875 1213.846436,739.216614 
	C1146.239990,767.293884 1078.527466,795.116394 1010.967896,823.305542 
	C1004.978821,825.804443 999.152344,829.632019 994.451111,834.104614 
	C979.533020,848.297180 971.840820,865.944275 971.831604,886.696716 
	C971.807678,940.359924 972.179993,994.026550 971.681213,1047.685181 
	C971.390076,1078.998657 983.369629,1103.622314 1007.692993,1123.030273 
	C1066.560303,1170.001709 1125.071777,1217.419434 1184.005859,1264.306152 
	C1205.402100,1281.328369 1228.604370,1295.725342 1253.497314,1307.943604 
	C1278.427490,1294.051270 1305.491943,1290.738037 1333.580933,1290.790283 
	C1475.238037,1291.054321 1616.895874,1290.861816 1758.553345,1290.985229 
	C1773.495239,1290.998291 1788.436279,1292.031250 1804.950928,1292.650024 
	C1806.160767,1291.120117 1808.511475,1288.372192 1810.617920,1285.448242 
	C1824.081665,1266.758911 1830.883667,1245.852539 1830.888794,1222.837524 
	C1830.905273,1148.509399 1830.831421,1074.181152 1830.757812,999.852966 
	C1830.755249,997.266663 1830.385010,994.680725 1830.176758,991.974426 
	C1827.484131,991.268311 1825.270508,990.568054 1823.007690,990.112183 
	C1765.581909,978.540710 1708.140137,967.048096 1650.723145,955.432861 
	C1547.965332,934.645447 1445.215088,913.819092 1342.494141,892.850586 
	C1337.980957,891.929382 1335.105835,892.768921 1332.014648,896.115112 
	C1322.214966,906.723083 1310.692993,915.172546 1297.990356,922.046997 
	C1294.137573,924.132080 1290.458740,926.538818 1285.549805,929.489807 
	C1289.318237,930.906982 1291.484863,931.648560 1293.594727,932.526489 
	C1317.537109,942.488159 1342.131348,951.144592 1365.290649,962.680969 
	C1457.338379,1008.532898 1522.607910,1079.720825 1562.261230,1174.517700 
	C1565.284302,1181.744629 1566.781128,1189.120483 1565.159912,1196.926270 
	C1561.739990,1213.391235 1548.617554,1225.843994 1532.565796,1227.851440 
	C1515.910156,1229.934204 1501.322388,1221.885254 1493.509644,1206.086792 
	C1489.675415,1198.333496 1486.136963,1190.433716 1481.885620,1181.224487 
M1435.804199,658.962219 
	C1435.804199,650.971558 1435.804321,642.980896 1435.804077,634.990234 
	C1435.802368,584.382568 1435.802246,533.774902 1435.798096,483.167236 
	C1435.796265,461.114441 1429.732422,441.158997 1415.232788,424.172211 
	C1390.235840,394.887756 1350.051514,394.537720 1324.601807,423.447906 
	C1310.864624,439.052979 1303.800903,457.355713 1303.769409,478.149414 
	C1303.679810,537.413391 1303.748535,596.677673 1303.771729,655.941833 
	C1303.772339,657.591125 1303.963135,659.240295 1304.067627,660.928467 
	C1338.000122,682.652100 1357.927612,714.481323 1370.263672,752.605408 
	C1374.812012,751.947998 1379.168579,751.846558 1383.200073,750.649658 
	C1409.169312,742.939697 1423.911987,724.319946 1431.973267,699.504272 
	C1436.047119,686.963684 1436.030518,673.947632 1435.804199,658.962219 
M1712.845093,847.796265 
	C1717.254150,859.820679 1723.464844,870.684204 1732.703247,879.749756 
	C1754.372681,901.013672 1784.157471,901.107300 1805.826416,879.764160 
	C1823.183960,862.667480 1830.727539,841.419922 1830.808472,817.519714 
	C1831.026489,753.211304 1831.001831,688.901428 1830.845093,624.592651 
	C1830.792480,602.986145 1824.759521,583.225891 1810.639771,566.385742 
	C1787.579712,538.882935 1751.845947,538.589600 1728.466797,565.879822 
	C1714.709595,581.938416 1707.973755,600.774536 1707.940186,621.855713 
	C1707.836548,686.831360 1707.708130,751.808472 1708.084351,816.782043 
	C1708.141479,826.624329 1710.833862,836.451294 1712.845093,847.796265 
M1632.310547,677.000122 
	C1632.310547,630.368652 1632.322876,583.737122 1632.293335,537.105652 
	C1632.290039,531.779236 1632.418945,526.414062 1631.859497,521.133301 
	C1629.380371,497.732727 1620.732422,477.278473 1601.751709,462.439880 
	C1583.861084,448.453461 1561.795288,448.103912 1543.364502,461.343079 
	C1538.557007,464.796417 1534.115234,469.053314 1530.378662,473.650879 
	C1516.564209,490.648743 1511.278076,510.455688 1511.344849,532.176208 
	C1511.537354,594.795105 1511.400513,657.414978 1511.432129,720.034424 
	C1511.434448,724.693359 1511.467041,729.382507 1511.965698,734.005859 
	C1514.099854,753.794006 1521.378418,771.329102 1535.485962,785.660889 
	C1556.880737,807.395752 1586.733887,807.337463 1608.199585,785.555603 
	C1623.385010,770.146606 1631.018311,751.275757 1631.980835,729.952515 
	C1632.745972,712.997986 1632.247803,695.986389 1632.310547,677.000122 
M1096.110229,674.613342 
	C1096.435303,684.540649 1097.547974,694.294739 1102.153076,704.088745 
	C1144.217896,686.349243 1185.760620,668.829956 1227.607178,651.182556 
	C1227.677979,650.235474 1227.861328,648.926758 1227.861572,647.617981 
	C1227.867310,591.679138 1228.017212,535.739502 1227.764771,479.801758 
	C1227.671753,459.227509 1221.555786,440.435974 1207.918091,424.622864 
	C1195.075439,409.731781 1179.101196,400.932220 1158.997192,402.158905 
	C1139.861694,403.326508 1125.003174,412.977386 1113.561401,427.897369 
	C1101.621826,443.466797 1096.064209,461.273163 1096.080566,480.908630 
	C1096.133911,544.838745 1096.100952,608.768921 1096.110229,674.613342 
z"/>
<path fill="#020202" opacity="1.000000" stroke="none" 
	d="
M560.384766,2202.463379 
	C536.468262,2266.750977 512.806274,2330.299805 489.034515,2394.143555 
	C460.800781,2394.143555 432.914215,2394.143555 404.472656,2394.143555 
	C383.455353,2337.691406 361.885132,2281.522461 341.641083,2224.879395 
	C321.566162,2168.709961 302.827209,2112.062988 281.586121,2055.813232 
	C281.338745,2057.445801 280.727448,2059.116943 280.896606,2060.705078 
	C287.031952,2118.317139 293.402069,2175.905029 299.304535,2233.540771 
	C300.523010,2245.438477 300.274780,2257.510498 300.295532,2269.502930 
	C300.390106,2324.156494 300.339417,2378.810303 300.340942,2433.463867 
	C300.341034,2436.416992 300.340973,2439.369873 300.340973,2442.862549 
	C253.453903,2442.862549 207.282669,2442.862549 160.384140,2442.862549 
	C160.384140,2245.150391 160.384140,2047.474731 160.384140,1849.388184 
	C216.190353,1849.388184 271.725098,1849.388184 327.800171,1849.388184 
	C331.875031,1860.348389 335.939758,1871.220581 339.961639,1882.108765 
	C365.086456,1950.127319 390.831116,2017.926392 415.049622,2086.266357 
	C426.812164,2119.457520 435.704102,2153.666016 445.923340,2187.405273 
	C446.840240,2190.432373 447.961823,2193.397217 448.825104,2195.914795 
	C450.222382,2196.062012 450.570496,2196.180420 450.872955,2196.108154 
	C451.179230,2196.034668 451.498749,2195.823975 451.709198,2195.583008 
	C452.136475,2195.093994 452.554688,2194.577148 452.863617,2194.010010 
	C453.178864,2193.431152 453.417633,2192.794189 453.589783,2192.155762 
	C484.901184,2076.043945 529.845703,1964.528442 568.630127,1850.936401 
	C568.731750,1850.638550 569.027832,1850.406982 569.689514,1849.561157 
	C625.045898,1849.561157 680.859924,1849.561157 737.173096,1849.561157 
	C737.173096,2047.384521 737.173096,2244.813965 737.173096,2442.828857 
	C690.005676,2442.828857 643.166382,2442.828857 595.861206,2442.828857 
	C595.582092,2441.352295 595.019775,2439.779297 595.025879,2438.208496 
	C595.289307,2370.562744 594.704956,2302.896240 596.302124,2235.281250 
	C597.062988,2203.072266 601.743347,2170.936279 605.102234,2138.814697 
	C607.698853,2113.981201 611.032288,2089.225586 613.948303,2064.424561 
	C614.266846,2061.715332 613.991272,2058.936035 612.846069,2055.966553 
	C604.961975,2071.313721 600.359253,2087.725098 594.579102,2103.659668 
	C588.682617,2119.915039 583.392944,2136.389404 577.748108,2152.737061 
	C572.102783,2169.086182 566.346680,2185.396973 560.384766,2202.463379 
z"/>
<path fill="#010101" opacity="1.000000" stroke="none" 
	d="
M1543.116211,1985.556152 
	C1547.166626,1965.087646 1550.541992,1945.066895 1553.707031,1925.012817 
	C1556.664551,1906.275513 1559.399170,1887.502808 1562.331665,1868.084961 
	C1605.269409,1868.084961 1648.107178,1868.084961 1691.729492,1868.084961 
	C1691.729492,1906.682983 1691.729492,1945.541992 1691.729492,1985.845947 
	C1703.595093,1986.121582 1714.770874,1985.955811 1725.934937,1985.984741 
	C1737.600342,1986.015137 1749.265869,1985.995239 1760.931274,1985.996216 
	C1772.235474,1985.997070 1783.539673,1985.996338 1795.589600,1985.996338 
	C1795.589600,2026.760376 1795.589600,2067.168457 1795.589600,2108.564453 
	C1761.502808,2108.564453 1727.371704,2108.564453 1692.638672,2108.564453 
	C1692.449097,2112.064697 1692.190430,2114.627686 1692.189209,2117.190430 
	C1692.166626,2165.518555 1691.966187,2213.848389 1692.339111,2262.173584 
	C1692.420654,2272.730225 1693.735474,2283.449951 1695.945190,2293.781494 
	C1700.334106,2314.302246 1714.656006,2325.173340 1734.229126,2330.053223 
	C1746.518433,2333.116943 1758.710693,2331.697754 1770.828369,2328.910156 
	C1776.013672,2327.717285 1781.161377,2326.361572 1787.532227,2324.780762 
	C1795.407471,2362.244629 1803.231445,2399.464600 1811.306519,2437.878906 
	C1798.474976,2441.126953 1786.404175,2444.576172 1774.158081,2447.209229 
	C1736.001709,2455.412598 1697.624756,2456.857178 1659.034912,2450.270020 
	C1603.832275,2440.846924 1568.711060,2408.132080 1549.549561,2356.554443 
	C1538.236450,2326.102539 1534.965454,2294.488281 1534.977417,2262.321533 
	C1534.995117,2214.659912 1534.981445,2166.998535 1534.980957,2119.336914 
	C1534.980957,2116.083008 1534.980957,2112.829102 1534.980957,2108.559814 
	C1514.484497,2108.559814 1494.975098,2108.559814 1475.049805,2108.559814 
	C1475.049805,2069.315430 1475.049805,2031.088135 1475.049805,1991.637817 
	C1497.453491,1989.757568 1519.901367,1987.873535 1543.116211,1985.556152 
z"/>
<path fill="#010101" opacity="1.000000" stroke="none" 
	d="
M1365.697021,2435.770508 
	C1322.919922,2452.852295 1279.212280,2457.329102 1234.523315,2452.324707 
	C1180.363037,2446.259277 1131.781250,2425.730713 1087.904419,2393.695557 
	C1086.591553,2392.737061 1085.370239,2391.653320 1083.436646,2390.084717 
	C1106.425049,2357.979980 1129.243530,2326.112793 1152.630249,2293.451904 
	C1157.180542,2296.528564 1161.454224,2299.430908 1165.741089,2302.313965 
	C1189.957764,2318.601074 1215.437256,2332.189453 1244.584961,2337.135742 
	C1259.763428,2339.711182 1275.086060,2340.039307 1290.195923,2336.009766 
	C1300.328491,2333.307617 1307.502319,2327.488770 1309.447632,2316.744141 
	C1311.361816,2306.172363 1307.546265,2297.511719 1298.872925,2291.557373 
	C1293.168701,2287.641113 1286.865479,2284.393799 1280.460449,2281.739502 
	C1257.410767,2272.186523 1233.930176,2263.630371 1211.134277,2253.520752 
	C1188.878052,2243.650635 1167.774292,2231.529053 1149.641602,2214.890137 
	C1120.312744,2187.977051 1106.742432,2154.859619 1109.102905,2114.916016 
	C1111.065552,2081.704590 1122.068726,2052.450195 1145.138672,2028.327148 
	C1165.377319,2007.164795 1190.063599,1992.666626 1218.206177,1985.069336 
	C1273.378418,1970.175293 1328.308960,1970.953247 1381.961914,1991.909180 
	C1409.031128,2002.482056 1433.745361,2017.673462 1458.265259,2035.463013 
	C1435.080322,2066.592773 1412.121704,2097.418945 1389.041138,2128.408691 
	C1379.151611,2122.202393 1370.081177,2116.017090 1360.555298,2110.639160 
	C1343.066650,2100.765625 1324.750244,2093.014160 1304.478027,2090.824951 
	C1293.396973,2089.628418 1282.562500,2090.303223 1271.924194,2093.796143 
	C1263.725342,2096.488037 1257.923096,2101.587158 1256.065918,2110.165039 
	C1253.984131,2119.779541 1256.554565,2128.391113 1264.634766,2134.097656 
	C1270.533203,2138.263184 1277.238403,2141.534668 1283.977051,2144.216797 
	C1306.230591,2153.074463 1328.763916,2161.230713 1350.995483,2170.141357 
	C1369.889160,2177.713867 1387.963135,2187.001465 1404.321655,2199.260498 
	C1424.143921,2214.115234 1441.285400,2231.785645 1448.621826,2255.784424 
	C1465.312378,2310.382568 1455.651489,2359.733643 1415.522705,2401.769287 
	C1401.530273,2416.426758 1384.783691,2427.167725 1365.697021,2435.770508 
z"/>
<path fill="#020202" opacity="1.000000" stroke="none" 
	d="
M1880.592529,2321.999512 
	C1880.592651,2209.744629 1880.592651,2098.489746 1880.592651,1986.611572 
	C1923.490112,1986.611572 1965.644409,1986.611572 2008.746338,1986.611572 
	C2012.403564,2012.315918 2016.091919,2038.238770 2019.787598,2064.213623 
	C2025.420166,2064.245850 2026.010742,2059.840820 2027.729492,2057.031738 
	C2039.281616,2038.150635 2052.427002,2020.602295 2069.997070,2006.868042 
	C2096.511719,1986.141602 2126.052734,1973.605591 2160.374512,1975.660034 
	C2172.947510,1976.412598 2185.471680,1978.270142 2197.955322,1980.060669 
	C2201.779785,1980.609009 2205.395508,1982.609985 2209.744873,1984.175415 
	C2201.229248,2029.302612 2192.804443,2073.948242 2184.287598,2119.080566 
	C2172.668945,2117.053223 2162.012695,2114.796875 2151.245605,2113.385010 
	C2107.538574,2107.652832 2068.337891,2128.491211 2047.705322,2167.622803 
	C2041.057129,2180.231445 2037.606079,2192.914551 2037.725708,2207.528320 
	C2038.337646,2282.179199 2038.008423,2356.837646 2038.008423,2431.493408 
	C2038.008423,2435.100830 2038.008423,2438.708252 2038.008423,2442.855469 
	C1985.420166,2442.855469 1933.603394,2442.855469 1880.592529,2442.855469 
	C1880.592529,2402.747559 1880.592529,2362.873779 1880.592529,2321.999512 
z"/>
<path fill="#020202" opacity="1.000000" stroke="none" 
	d="
M856.326843,2427.787109 
	C856.326843,2280.288574 856.326843,2133.757812 856.326843,1986.609497 
	C908.862122,1986.609497 960.667053,1986.609497 1013.157532,1986.609497 
	C1013.157532,2138.489014 1013.157532,2290.484375 1013.157532,2442.920654 
	C960.970154,2442.920654 909.167297,2442.920654 856.326843,2442.920654 
	C856.326843,2437.894043 856.326843,2433.324463 856.326843,2427.787109 
z"/>
<path fill="#010101" opacity="1.000000" stroke="none" 
	d="
M2265.321533,2443.182129 
	C2263.958984,2439.795410 2263.057617,2436.596924 2263.056152,2433.397705 
	C2262.982666,2287.507812 2262.988281,2141.618164 2262.984619,1995.728271 
	C2262.984619,1992.794067 2262.984863,1989.859863 2262.984863,1986.462891 
	C2315.639160,1986.462891 2367.413818,1986.462891 2419.680176,1986.462891 
	C2419.680176,2138.595947 2419.680176,2290.356689 2419.680176,2443.369873 
	C2368.533691,2443.369873 2317.367920,2443.369873 2265.321533,2443.182129 
z"/>
<path fill="#020202" opacity="1.000000" stroke="none" 
	d="
M849.739258,1860.262451 
	C847.627625,1835.023193 853.192322,1813.245605 871.118042,1795.521240 
	C882.109253,1784.653687 895.437744,1778.078247 910.233032,1774.764282 
	C927.980896,1770.788940 945.837036,1770.984375 963.535522,1775.812378 
	C999.917664,1785.737061 1020.983826,1813.653564 1020.976624,1851.204956 
	C1020.967651,1897.769653 987.591003,1923.330566 951.958801,1928.100952 
	C932.463074,1930.710938 913.362366,1929.680664 895.206482,1921.764893 
	C868.718384,1910.216309 853.094666,1890.195435 849.739258,1860.262451 
z"/>
<path fill="#020202" opacity="1.000000" stroke="none" 
	d="
M2255.727295,1851.943848 
	C2255.528320,1828.583252 2262.617676,1809.021240 2279.304199,1793.692871 
	C2293.292480,1780.843140 2310.416016,1774.704102 2329.077148,1772.749634 
	C2347.243408,1770.847046 2364.975586,1772.702759 2381.940918,1779.914917 
	C2412.812988,1793.039062 2429.267578,1820.502563 2427.201904,1855.017578 
	C2424.723145,1896.432129 2397.773926,1923.429443 2356.390625,1928.395874 
	C2343.291992,1929.968140 2330.391357,1929.610107 2317.643799,1926.872559 
	C2281.867676,1919.189087 2256.152344,1892.439331 2255.727295,1851.943848 
z"/>
<path fill="#FEFEFE" opacity="1.000000" stroke="none" 
	d="
M1482.175171,1181.912354 
	C1486.136963,1190.433716 1489.675415,1198.333496 1493.509644,1206.086792 
	C1501.322388,1221.885254 1515.910156,1229.934204 1532.565796,1227.851440 
	C1548.617554,1225.843994 1561.739990,1213.391235 1565.159912,1196.926270 
	C1566.781128,1189.120483 1565.284302,1181.744629 1562.261230,1174.517700 
	C1522.607910,1079.720825 1457.338379,1008.532898 1365.290649,962.680969 
	C1342.131348,951.144592 1317.537109,942.488159 1293.594727,932.526489 
	C1291.484863,931.648560 1289.318237,930.906982 1285.549805,929.489807 
	C1290.458740,926.538818 1294.137573,924.132080 1297.990356,922.046997 
	C1310.692993,915.172546 1322.214966,906.723083 1332.014648,896.115112 
	C1335.105835,892.768921 1337.980957,891.929382 1342.494141,892.850586 
	C1445.215088,913.819092 1547.965332,934.645447 1650.723145,955.432861 
	C1708.140137,967.048096 1765.581909,978.540710 1823.007690,990.112183 
	C1825.270508,990.568054 1827.484131,991.268311 1830.176758,991.974426 
	C1830.385010,994.680725 1830.755249,997.266663 1830.757812,999.852966 
	C1830.831421,1074.181152 1830.905273,1148.509399 1830.888794,1222.837524 
	C1830.883667,1245.852539 1824.081665,1266.758911 1810.617920,1285.448242 
	C1808.511475,1288.372192 1806.160767,1291.120117 1804.950928,1292.650024 
	C1788.436279,1292.031250 1773.495239,1290.998291 1758.553345,1290.985229 
	C1616.895874,1290.861816 1475.238037,1291.054321 1333.580933,1290.790283 
	C1305.491943,1290.738037 1278.427490,1294.051270 1253.497314,1307.943604 
	C1228.604370,1295.725342 1205.402100,1281.328369 1184.005859,1264.306152 
	C1125.071777,1217.419434 1066.560303,1170.001709 1007.692993,1123.030273 
	C983.369629,1103.622314 971.390076,1078.998657 971.681213,1047.685181 
	C972.179993,994.026550 971.807678,940.359924 971.831604,886.696716 
	C971.840820,865.944275 979.533020,848.297180 994.451111,834.104614 
	C999.152344,829.632019 1004.978821,825.804443 1010.967896,823.305542 
	C1078.527466,795.116394 1146.239990,767.293884 1213.846436,739.216614 
	C1221.510132,736.033875 1228.605347,731.474243 1236.285889,728.342407 
	C1241.749268,726.114624 1247.681274,724.753845 1253.534302,723.835632 
	C1260.889160,722.681763 1267.588257,725.230408 1272.620850,730.573669 
	C1295.613281,754.985474 1306.633911,786.753540 1293.852539,819.576538 
	C1287.134155,836.828918 1274.669312,848.887939 1258.737793,857.742798 
	C1229.929199,873.755005 1201.143433,889.808472 1172.366333,905.877075 
	C1168.591064,907.985107 1164.720337,910.006958 1161.239624,912.543091 
	C1148.076172,922.134155 1143.035034,935.266052 1146.071289,951.080750 
	C1149.065552,966.675232 1158.915039,976.321716 1174.254517,980.085938 
	C1201.707031,986.822571 1229.565063,992.159790 1256.621338,1000.207153 
	C1314.118774,1017.308594 1366.534668,1044.241943 1410.902222,1085.388428 
	C1440.548218,1112.881836 1463.988525,1145.009766 1482.175171,1181.912354 
z"/>
<path fill="#FDFDFD" opacity="1.000000" stroke="none" 
	d="
M1435.804199,659.952942 
	C1436.030518,673.947632 1436.047119,686.963684 1431.973267,699.504272 
	C1423.911987,724.319946 1409.169312,742.939697 1383.200073,750.649658 
	C1379.168579,751.846558 1374.812012,751.947998 1370.263672,752.605408 
	C1357.927612,714.481323 1338.000122,682.652100 1304.067627,660.928467 
	C1303.963135,659.240295 1303.772339,657.591125 1303.771729,655.941833 
	C1303.748535,596.677673 1303.679810,537.413391 1303.769409,478.149414 
	C1303.800903,457.355713 1310.864624,439.052979 1324.601807,423.447906 
	C1350.051514,394.537720 1390.235840,394.887756 1415.232788,424.172211 
	C1429.732422,441.158997 1435.796265,461.114441 1435.798096,483.167236 
	C1435.802246,533.774902 1435.802368,584.382568 1435.804077,634.990234 
	C1435.804321,642.980896 1435.804199,650.971558 1435.804199,659.952942 
z"/>
<path fill="#FEFEFE" opacity="1.000000" stroke="none" 
	d="
M1712.576172,847.040771 
	C1710.833862,836.451294 1708.141479,826.624329 1708.084351,816.782043 
	C1707.708130,751.808472 1707.836548,686.831360 1707.940186,621.855713 
	C1707.973755,600.774536 1714.709595,581.938416 1728.466797,565.879822 
	C1751.845947,538.589600 1787.579712,538.882935 1810.639771,566.385742 
	C1824.759521,583.225891 1830.792480,602.986145 1830.845093,624.592651 
	C1831.001831,688.901428 1831.026489,753.211304 1830.808472,817.519714 
	C1830.727539,841.419922 1823.183960,862.667480 1805.826416,879.764160 
	C1784.157471,901.107300 1754.372681,901.013672 1732.703247,879.749756 
	C1723.464844,870.684204 1717.254150,859.820679 1712.576172,847.040771 
z"/>
<path fill="#FEFEFE" opacity="1.000000" stroke="none" 
	d="
M1632.310547,678.000122 
	C1632.247803,695.986389 1632.745972,712.997986 1631.980835,729.952515 
	C1631.018311,751.275757 1623.385010,770.146606 1608.199585,785.555603 
	C1586.733887,807.337463 1556.880737,807.395752 1535.485962,785.660889 
	C1521.378418,771.329102 1514.099854,753.794006 1511.965698,734.005859 
	C1511.467041,729.382507 1511.434448,724.693359 1511.432129,720.034424 
	C1511.400513,657.414978 1511.537354,594.795105 1511.344849,532.176208 
	C1511.278076,510.455688 1516.564209,490.648743 1530.378662,473.650879 
	C1534.115234,469.053314 1538.557007,464.796417 1543.364502,461.343079 
	C1561.795288,448.103912 1583.861084,448.453461 1601.751709,462.439880 
	C1620.732422,477.278473 1629.380371,497.732727 1631.859497,521.133301 
	C1632.418945,526.414062 1632.290039,531.779236 1632.293335,537.105652 
	C1632.322876,583.737122 1632.310547,630.368652 1632.310547,678.000122 
z"/>
<path fill="#FDFDFD" opacity="1.000000" stroke="none" 
	d="
M1096.105713,673.656250 
	C1096.100952,608.768921 1096.133911,544.838745 1096.080566,480.908630 
	C1096.064209,461.273163 1101.621826,443.466797 1113.561401,427.897369 
	C1125.003174,412.977386 1139.861694,403.326508 1158.997192,402.158905 
	C1179.101196,400.932220 1195.075439,409.731781 1207.918091,424.622864 
	C1221.555786,440.435974 1227.671753,459.227509 1227.764771,479.801758 
	C1228.017212,535.739502 1227.867310,591.679138 1227.861572,647.617981 
	C1227.861328,648.926758 1227.677979,650.235474 1227.607178,651.182556 
	C1185.760620,668.829956 1144.217896,686.349243 1102.153076,704.088745 
	C1097.547974,694.294739 1096.435303,684.540649 1096.105713,673.656250 
z"/>
</svg>